<?xml version="1.0" encoding="UTF-8"?>
<svg version="1.1" viewBox="0 0 2092 800" width="2092" height="800" xmlns="http://www.w3.org/2000/svg">
<path transform="translate(1274,5)" d="m0 0h12l19 1 25 4 20 5 22 8 16 8 13 8 16 12 11 11-1 5-13 13-4 1-9-7-10-8-14-9-17-9-16-6-24-6-29-3h-18l-21 2-13 2-17 4-20 7-16 8-14 8-15 11-11 10-13 13-9 12-10 16-8 15-8 22-5 21-2 13-1 25 1 21 4 22 6 21 8 19 10 18 12 16 9 10 6 7 11 9 15 11 15 9 18 8 21 7 26 5 7 1 27 1 19-1 18-3 19-5 21-8 17-9 16-11 10-9 3-2 5 1 14 14-1 5-13 12-17 12-15 9-21 9-19 6-17 4-23 3-28 1-27-2-22-4-24-7-16-6-16-8-17-10-16-12-11-10-5-4-7-8-8-9-10-14-10-17-8-16-9-25-4-16-4-28v-38l3-21 3-15 6-20 6-15 8-16 10-17 11-14 9-10 7-8 11-9 8-7 15-10 18-10 17-8 25-8 23-5 15-2z" fill="#E9DCD4"/>
<path transform="translate(813,8)" d="m0 0h22l4 4 12 27 7 15 15 32 12 26 12 27 7 15 10 22 7 15 17 36 9 20 18 39 15 33 19 41 17 37 14 30-1 5h-14l-14-1-4-5-45-99-17-37-9-20-12-26-16-36-7-15-17-37-12-26-10-23-7-15-12-26-10-22h-3l-15 33-11 25-7 15-17 37-16 36-9 19-16 36-9 19-13 29-7 16-7 15-13 28-15 33-9 21-7 15-5 10-13 1h-11l-7-2 5-13 18-38 13-29 7-15 26-56 16-35 7-16 7-15 17-36 7-16 7-15 13-28 15-33 17-36 15-33 4-6z" fill="#B58E5B"/>
<path transform="translate(180,499)" d="m0 0h6l5 5 11 13 12 16 10 12 13 17 13 16 10 13 11 14 10 12h1l1-116 1-2h9v140h-8l-10-11-10-13-11-14-14-18-13-16-12-16-13-16-7-9-4-5-2-1v118l-1 1h-9l-1-1v-46l1-21v-71z" fill="#EBDFD8"/>
<path transform="translate(1245,499)" d="m0 0h7l5 5 10 12 10 13 12 15 11 14 12 15 10 13 22 28 1 3 3-1 1-116 1-1h8l1 1v139h-9l-8-9-9-12-14-18-13-16-11-14-14-18-13-17-10-13-4-1v117l-1 1h-9v-139z" fill="#E9DCD4"/>
<path transform="translate(1551,499)" d="m0 0h8l1 1 1 60 1 2h92l1-62 1-1h9l1 3v136l-1 1h-9l-1-1-1-64-2-1h-91l-1 66h-9l-1-2v-135z" fill="#E9DDD5"/>
<path transform="translate(343,499)" d="m0 0h64l15 3 13 5 13 8 12 12 6 10 5 15 1 7v19l-2 11-4 11-6 11-8 9-8 6-16 8-15 4-10 1h-61l-1-4v-51l1-13 1-1h8l1 56 1 3h55l16-4 12-6 6-5h2l2-4 7-9 5-11 2-8v-27l-5-15-7-10-8-9-10-6-10-4-8-2-13-1h-40l-17-1v-7z" fill="#E9DDD5"/>
<path transform="translate(507,499)" d="m0 0h63l16 4 11 6 9 9 5 9 3 9v21l-5 12-7 10-10 7-9 3 2 6 7 10 12 17 11 15v2h-10l-5-5-14-20-13-18-3-3-53 1v43l-1 2h-8l-1-1v-52l5-2 59-1 10-3 9-5 5-4 5-8 2-6 1-7v-8l-3-14-6-8-8-6-11-4-16-2h-43l-9-1z" fill="#E9DCD4"/>
<path transform="translate(813,498)" d="m0 0h20l14 3 15 6 3 2-1 5-5 1-16-6-14-2h-10l-16 3-9 5-6 7-3 8v7l3 9 6 7 10 5 16 5 25 7 11 5 8 6 6 8 3 11v8l-4 11-6 8-8 6-13 5-10 2h-20l-15-3-15-6-10-7-1-3 2-4 3-1 12 7 16 6 9 1h18l10-2 10-4 7-7 3-7v-12l-5-10-9-6-18-6-27-7-14-7-9-8-4-8-1-3v-17l4-8 7-9 10-6 12-4z" fill="#E9DCD4"/>
<path transform="translate(1010,498)" d="m0 0h18l12 2 13 5 10 6 5 6-4 5-4-1-13-8-11-4-18-2-16 2-11 4-12 7-9 9-7 11-5 14-1 7v16l3 14 6 12 9 11 11 8 11 5 7 2 19 1 11-1 14-5 10-6 5-2 4 3-1 5-8 6-10 5-13 4-6 1h-20l-17-4-16-8-9-7-9-10-7-12-4-12-2-10v-16l4-17 7-14 9-11 9-8 10-6 18-6z" fill="#E9DCD4"/>
<path transform="translate(1459,498)" d="m0 0h17l16 3 16 8 8 6-1 4-3 3-4-1-15-9-9-3-18-2-16 2-11 4-13 8-7 7-7 10-5 13-2 9v18l3 13 6 12 10 12 10 7 11 5 7 2 10 1h10l13-2 13-5 12-8 6 4-1 5-14 9-10 4-15 3h-18l-15-3-12-5-10-6-8-7-9-12-8-16-2-9v-26l5-16 5-10 13-15 10-7 13-6 11-3z" fill="#E9DCD5"/>
<path transform="translate(1823,498)" d="m0 0h17l12 2 13 5 12 7 3 3-1 5-5 2-11-7-11-5-19-3-18 2-11 4-12 7-5 5-8 9-5 10-4 13-1 6v12l4 16 4 9 6 9 5 6 10 7 11 5 7 2 11 1h9l11-1 12-4 15-9 5 2 1 5-8 6-14 7-17 4h-19l-17-4-9-4-11-6-11-11-9-14-5-13-2-10v-18l3-14 4-10 9-13 11-11 12-7 18-6z" fill="#E9DDD5"/>
<path transform="translate(1954,499)" d="m0 0h8l4 5 11 23 13 28 9 20 10 21 11 25 7 15v3h-10l-8-16-13-29-15-33-16-35-6-13v-2l-3 3-16 35-30 67-10 21-2 2h-9l1-5 16-35 14-30 10-22 7-15 8-18 7-13z" fill="#EADDD6"/>
<path transform="translate(1144,499)" d="m0 0h10l5 8 11 24 18 40 7 16 8 16 7 16 8 16v4h-10l-8-16-11-25-10-23-13-27-7-16-8-18-4-2-3 9-13 28-11 24-11 26-7 14-7 16-5 10h-10l1-5 11-24 15-32 9-20 10-21 9-21 8-16z" fill="#E9DCD5"/>
<path transform="translate(78,499)" d="m0 0h10l5 8 7 16 7 15 11 24 11 23 10 21 11 25 3 6v2h-11l-7-14-12-27-15-34-24-52-3 2-12 27-12 26-5 11-12 27-13 29-3 5h-10l3-9 13-28 14-31 8-16 8-18 16-35z" fill="#EADED7"/>
<path transform="translate(1714,499)" d="m0 0h8l2 5v129l-1 6h-9l-1-1v-138z" fill="#EADFD7"/>
<path transform="translate(1220,725)" d="m0 0h11l8 4 5 2 1-5h4v47l-5 10-10 5h-17l-10-4-1-4 3-1 9 4h14l8-4 2-3 1-5v-8l-10 5-5 1h-7l-8-3-8-7-3-7v-10l3-7 4-5 7-4zm-1 4-8 5-4 8v9l4 8 6 4 3 1h12l7-4 4-5 1-3v-10l-4-8-6-4-3-1z" fill="#BA9566"/>
<path transform="translate(652,630)" d="m0 0h92l1 1v7l-1 1h-93v-8z" fill="#E9DCD4"/>
<path transform="translate(652,563)" d="m0 0h91l2 1v7l-1 1h-93v-8z" fill="#E9DCD4"/>
<path transform="translate(653,496)" d="m0 0h85l7 2v7h-94v-8z" fill="#E9DCD4"/>
<path transform="translate(610,709)" d="m0 0h13l12 2 8 5 4 5 1 3v13l-4 6-6 5-5 2-6 1-20 1-1 13-1 3-4-1v-56l1-1zm-1 4-3 1v31l1 1h24l8-4 4-6v-12l-5-7-7-3z" fill="#BD996D"/>
<path transform="translate(1295,725)" d="m0 0h9l8 3 7 8 3 7v5l-1 1-38 1 3 9 6 5 7 2 10-1 5-3 4 1-2 4-6 3-4 1h-10l-9-4-5-4-5-10v-9l4-10 8-7zm-2 4-6 4-4 7v5l4 1h27l2-1-1-8-4-5-5-3z" fill="#BA9668"/>
<path transform="translate(1029,709)" d="m0 0h9l9 2 5 3-1 3-5-1-8-2h-9l-8 3-3 4v10l4 2 10 4 13 4 6 4 4 5v10l-5 7-7 3-5 1h-10l-11-3-6-4 1-3 15 5h12l7-3 3-4v-8l-6-5-16-5-9-4-5-5-1-2v-8l3-6 5-4z" fill="#BC996C"/>
<path transform="translate(726,725)" d="m0 0h7l9 3 4 4 2 4v34h-4l-1-2-6 1-5 2h-8l-9-3-4-5v-10l5-5 4-2 12-1h11l-1-9-4-5-2-1h-12l-8 3h-3v-4l7-3zm-3 24-6 3-2 4 1 6 4 4 5 2 9-1 5-3 4-4v-10l-1-1z" fill="#BA9667"/>
<path transform="translate(1084,725)" d="m0 0 4 1 1 29 4 8 3 2 9 1 7-2 5-5 2-8 1-25 4-1 1 1v43l-3 2-2-2v-4l-12 6h-9l-10-4-4-5-2-8v-28z" fill="#BC986B"/>
<path transform="translate(1394,725)" d="m0 0 4 1 7 15 9 20 3 1 16-35 3-2 1 5-16 36-8 16-7 6h-12l-4-4 1-2 5 1h8l5-4 3-9-14-31-4-9z" fill="#BA9667"/>
<path transform="translate(791,725)" d="m0 0 14 1 4 2v3l-7-1h-15l-5 5 1 6 5 3 16 4 5 3 2 3v9l-4 5-5 2-13 1-12-3-1-5 5 1 7 2h11l5-2 2-6-2-4-7-3-13-3-6-4-2-4 1-7 4-5 4-2z" fill="#BB9769"/>
<path transform="translate(941,725)" d="m0 0h9l10 4 2 2v3l-5-1-5-3h-12l-7 4-4 7-1 9 3 9 6 5 6 2h7l7-3 4-2 1 4-8 5-4 1h-9l-8-3-6-5-4-8-1-10 3-9 6-7z" fill="#BC986B"/>
<path transform="translate(842,717)" d="m0 0 3 1 2 6 12 1v4h-13l1 34 4 3h10v3l-6 2-10-2-4-5-1-34-7-1v-4l7-2z" fill="#BB976A"/>
<path transform="translate(1158,725)" d="m0 0 3 1 1 5 4-2 4-3 8-1v4l-10 4-4 5-2 9-1 23h-4v-44z" fill="#B99464"/>
<path transform="translate(678,705)" d="m0 0 3 1v63h-3l-1-1-1-9v-42l1-11z" fill="#BA9567"/>
<path transform="translate(1350,725)" d="m0 0 3 1 1 5 4-2 4-3 8-1 1 4-11 4-4 5-2 10-1 11h-4v-33z" fill="#B89363"/>
<path transform="translate(890,726)" d="m0 0h4v44h-4l-1-3v-32z" fill="#BD996D"/>
<path transform="translate(1165,468)" d="m0 0 4 2-8 7-11 8h-9l6-7 10-8z" fill="#E9DCD4"/>
<path transform="translate(708,469)" d="m0 0h9l-2 4-17 12h-8l6-7z" fill="#EADED7"/>
<path transform="translate(516,595)" d="m0 0h1v42l-1 2h-8l-1-1v-5l3 4h4l1-5z" fill="#FDFDFD"/>
</svg>
