<?xml version="1.0" encoding="UTF-8"?>
<svg version="1.1" xmlns="http://www.w3.org/2000/svg" width="2092" height="800">
<path d="M0 0 C0.57621094 0.58587891 0.57621094 0.58587891 1.1640625 1.18359375 C-0.25514503 4.4245444 -1.96901998 6.5419488 -4.49609375 9.00390625 C-5.20701172 9.70386719 -5.91792969 10.40382813 -6.65039062 11.125 C-7.39224609 11.84558594 -8.13410156 12.56617187 -8.8984375 13.30859375 C-10.37066943 14.74646936 -11.84082906 16.18647083 -13.30859375 17.62890625 C-13.96093994 18.26328613 -14.61328613 18.89766602 -15.28540039 19.55126953 C-16.9247975 21.11818542 -16.9247975 21.11818542 -17.8359375 23.18359375 C-21.86799873 21.52791644 -24.77020246 18.68385164 -27.9609375 15.80859375 C-51.37829879 -4.7194706 -79.4686905 -17.5423324 -109.8359375 -23.81640625 C-110.58020996 -23.98011719 -111.32448242 -24.14382812 -112.09130859 -24.3125 C-137.26399887 -29.65969425 -167.73673272 -29.3856676 -192.8359375 -23.81640625 C-193.77566406 -23.61772949 -194.71539063 -23.41905273 -195.68359375 -23.21435547 C-223.62624099 -17.19767255 -251.44279277 -5.90708595 -273.8359375 12.18359375 C-274.41102051 12.64733398 -274.98610352 13.11107422 -275.57861328 13.58886719 C-279.7689843 17.00645663 -283.83683286 20.54451442 -287.8359375 24.18359375 C-288.35397949 24.65490723 -288.87202148 25.1262207 -289.40576172 25.61181641 C-302.62938162 37.82444321 -313.21516306 52.43123814 -321.8359375 68.18359375 C-322.34350586 69.10011719 -322.34350586 69.10011719 -322.86132812 70.03515625 C-338.29094957 98.23920617 -345.31427201 129.86276144 -345.1484375 161.87109375 C-345.14570328 162.97786469 -345.14570328 162.97786469 -345.14291382 164.10699463 C-345.09234407 176.33037709 -344.35924242 188.19974169 -341.8359375 200.18359375 C-341.66433105 201.00923828 -341.49272461 201.83488281 -341.31591797 202.68554688 C-337.33770386 221.21499452 -330.81269796 238.51806173 -321.8359375 255.18359375 C-321.35471436 256.09383301 -321.35471436 256.09383301 -320.86376953 257.02246094 C-313.89324695 270.14219516 -305.05454662 281.42632927 -294.8359375 292.18359375 C-294.3414209 292.71065918 -293.8469043 293.23772461 -293.33740234 293.78076172 C-258.8667632 330.31526132 -209.88591246 349.36093706 -160.12597656 351.28857422 C-111.3169902 352.68336421 -65.24906285 339.08320589 -27.8359375 307.18359375 C-26.4399487 305.78760495 -25.06043103 304.37457837 -23.7109375 302.93359375 C-22.7621875 302.02609375 -21.8134375 301.11859375 -20.8359375 300.18359375 C-17.45619169 300.41783356 -15.80429569 301.85636405 -13.5234375 304.24609375 C-12.92273437 304.87257813 -12.32203125 305.4990625 -11.703125 306.14453125 C-9.22558255 308.850132 -6.80944888 311.6043801 -4.4140625 314.3828125 C-2.63943935 316.40781565 -0.77816815 318.31905232 1.1640625 320.18359375 C-6.46394416 340.06408612 -40.25421976 355.46670715 -58.35400391 363.72290039 C-115.88426534 389.06143003 -184.5303215 388.41752171 -242.8359375 366.18359375 C-274.04858282 353.71076933 -304.26806727 334.26678648 -325.8359375 308.18359375 C-326.56941406 307.34957031 -327.30289062 306.51554687 -328.05859375 305.65625 C-366.63699628 261.08627307 -381.93587892 201.81589423 -378.55859375 143.80859375 C-375.213407 97.8079202 -358.0980292 53.13494651 -327.8359375 18.18359375 C-326.77826172 16.95962891 -326.77826172 16.95962891 -325.69921875 15.7109375 C-285.40401052 -29.93767361 -228.83978242 -54.55784588 -168.39135742 -58.49389648 C-106.05009736 -61.63395631 -44.92622108 -44.44828256 0 0 Z " fill="#454A48" transform="translate(1462.8359375,58.81640625)"/>
<path d="M0 0 C11.22 0 22.44 0 34 0 C52.17373589 39.1058106 52.17373589 39.1058106 60.5 57.5 C66.45758242 70.65864017 72.51032572 83.77162107 78.59274292 96.87298584 C84.6262937 109.86923335 90.63162571 122.8779419 96.60681152 135.90112305 C100.57300811 144.54545709 104.54466443 153.18716145 108.53515625 161.8203125 C108.9135968 162.6390686 109.29203735 163.45782471 109.6819458 164.3013916 C110.44719446 165.95691386 111.21245326 167.61243144 111.97772217 169.26794434 C117.84030547 181.9512349 123.6716989 194.64741259 129.4375 207.375 C135.81509078 221.45235451 142.30233084 235.47751923 148.81005859 249.49511719 C154.43726717 261.6175627 160.03348777 273.75381799 165.60681152 285.90112305 C169.57300811 294.54545709 173.54466443 303.18716145 177.53515625 311.8203125 C177.9135968 312.6390686 178.29203735 313.45782471 178.6819458 314.3013916 C179.44719446 315.95691386 180.21245326 317.61243144 180.97772217 319.26794434 C187.14389527 332.60803028 193.2704449 345.96464746 199.33285522 359.35220337 C205.56801335 373.11564188 211.92389421 386.82247505 218.30444336 400.51904297 C222.11508487 408.70771698 225.88658865 416.91172776 229.56640625 425.16015625 C229.91307846 425.93491806 230.25975067 426.70967987 230.6169281 427.50791931 C233 432.87834219 233 432.87834219 233 434 C221.12 434 209.24 434 197 434 C194.751875 428.905625 192.50375 423.81125 190.1875 418.5625 C184.09543088 404.80976038 177.85489857 391.13311977 171.5 377.5 C165.54281347 364.7192279 159.68842939 351.90266891 154 339 C148.3025956 326.08127903 142.45401694 313.23998714 136.5 300.4375 C135.89845596 299.14375961 135.89845596 299.14375961 135.28475952 297.82388306 C133.68149938 294.3761086 132.07805608 290.92841939 130.47428894 287.48088074 C126.55989445 279.06217105 122.67513599 270.63007597 118.8125 262.1875 C118.48682037 261.47578644 118.16114075 260.76407288 117.82559204 260.03079224 C112.52723845 248.44096195 107.35083853 236.79923178 102.20132446 225.14266968 C96.38333602 211.98452485 90.36012432 198.92783148 84.28256226 185.88787842 C78.73386499 173.97685514 73.30060825 162.0234042 68 150 C61.51280372 135.28864106 54.8007559 120.68975478 48.01806641 106.11254883 C42.92217725 95.15912421 37.86685374 84.18875169 32.875 73.1875 C32.56794128 72.51080261 32.26088257 71.83410522 31.94451904 71.13690186 C26.93969987 60.10177643 21.96024034 49.05522978 17 38 C11.89229063 47.99709051 7.08653478 58.07444477 2.58886719 68.35986328 C-3.44535943 82.14932441 -9.66047285 95.84854708 -16 109.5 C-22.23501939 122.93135665 -28.33367715 136.41492199 -34.31640625 149.96044922 C-39.11257615 160.81531021 -44.03324089 171.59946004 -49.06762695 182.34643555 C-53.50085683 191.84446194 -57.76267919 201.41333767 -62 211 C-66.73585826 221.71457085 -71.53034789 232.39131723 -76.5 243 C-81.34289576 253.33924562 -86.01473321 263.7430804 -90.625 274.1875 C-96.50446001 287.50465573 -102.54345061 300.74038802 -108.6875 313.9375 C-114.62439185 326.6903042 -120.49551143 339.46423618 -126.21948242 352.31420898 C-130.42045753 361.73697554 -134.70091201 371.12167671 -139 380.5 C-144.14685297 391.73103957 -149.26127508 402.97559592 -154.3125 414.25 C-154.84552734 415.43916016 -155.37855469 416.62832031 -155.92773438 417.85351562 C-158.32768293 423.21976304 -160.68404801 428.59611202 -163 434 C-174.55 434 -186.1 434 -198 434 C-197.14890766 428.89344599 -195.92918203 425.23002968 -193.7109375 420.69921875 C-193.37607834 419.99901611 -193.04121918 419.29881348 -192.69621277 418.57739258 C-191.97350615 417.06760117 -191.24751835 415.55937687 -190.51858521 414.05258179 C-188.55459852 409.99080386 -186.6165814 405.9166442 -184.67578125 401.84375 C-184.27928879 401.01316574 -183.88279633 400.18258148 -183.47428894 399.326828 C-179.7402823 391.49028095 -176.13392116 383.59917391 -172.5625 375.6875 C-171.33146379 372.96451106 -170.09958527 370.24190422 -168.8671875 367.51953125 C-168.55664932 366.83345291 -168.24611115 366.14737457 -167.92616272 365.44050598 C-164.05520955 356.89938362 -160.12127906 348.38732059 -156.1875 339.875 C-155.81202026 339.06225616 -155.43654053 338.24951233 -155.04968262 337.41213989 C-151.98278165 330.77405384 -148.91340072 324.13711541 -145.84387207 317.50024414 C-143.16558547 311.70903299 -140.48831157 305.91735517 -137.8125 300.125 C-137.24828339 298.90375427 -137.24828339 298.90375427 -136.67266846 297.65783691 C-131.28916092 286.00153136 -125.95631541 274.32325999 -120.6578064 262.62811279 C-114.57942597 249.21759797 -108.38989465 235.85953673 -102.18994141 222.50488281 C-96.56273283 210.3824373 -90.96651223 198.24618201 -85.39318848 186.09887695 C-81.42699189 177.45454291 -77.45533557 168.81283855 -73.46484375 160.1796875 C-73.0864032 159.3609314 -72.70796265 158.54217529 -72.3180542 157.6986084 C-71.55280554 156.04308614 -70.78754674 154.38756856 -70.02227783 152.73205566 C-64.15969453 140.0487651 -58.3283011 127.35258741 -52.5625 114.625 C-46.9803922 102.30352733 -41.32053728 90.01943663 -35.625 77.75 C-23.6221591 51.89192128 -11.63725972 26.02514447 0 0 Z " fill="#DACCAA" transform="translate(826,4)"/>
<path d="M0 0 C11 0 11 0 14.78515625 3.26171875 C15.91252012 4.71047217 17.00391985 6.18775208 18.0625 7.6875 C18.65264893 8.46262939 19.24279785 9.23775879 19.85083008 10.03637695 C21.04119007 11.60568627 22.2171921 13.18599938 23.37792969 14.77734375 C25.1964245 17.26915242 27.07960468 19.70280069 28.97802734 22.13378906 C30.18933435 23.68985644 31.38374019 25.25903123 32.578125 26.828125 C35.16900608 30.22134344 37.79629441 33.58343344 40.4375 36.9375 C40.89535889 37.51910889 41.35321777 38.10071777 41.82495117 38.69995117 C42.75274827 39.87807258 43.68072727 41.05605076 44.60888672 42.23388672 C46.90874237 45.15371048 49.20415945 48.07701893 51.5 51 C52.4166451 52.16668361 53.33331177 53.33335027 54.25 54.5 C81.75 89.5 81.75 89.5 83.12646484 91.25195312 C84.03813357 92.41219985 84.94991641 93.57235691 85.86181641 94.73242188 C88.23092158 97.74656785 90.59769805 100.76250217 92.9609375 103.78125 C93.44884766 104.40386719 93.93675781 105.02648437 94.43945312 105.66796875 C95.36337693 106.84707151 96.28660993 108.02671608 97.20898438 109.20703125 C97.63244141 109.74714844 98.05589844 110.28726563 98.4921875 110.84375 C98.85683105 111.30974609 99.22147461 111.77574219 99.59716797 112.25585938 C101.69639265 114.86582476 103.85574886 117.42689864 106 120 C106.495 60.6 106.495 60.6 107 0 C111.29 0 115.58 0 120 0 C120 48.18 120 96.36 120 146 C108 146 108 146 105.02734375 143.6484375 C103.99287109 142.02808594 103.99287109 142.02808594 102.9375 140.375 C102.12431203 139.1718797 101.30913718 137.97010043 100.4921875 136.76953125 C100.08581055 136.1451416 99.67943359 135.52075195 99.26074219 134.87744141 C97.19758831 131.80508406 94.87642331 128.94776744 92.5625 126.0625 C91.634356 124.88625283 90.70727657 123.70916489 89.78125 122.53125 C89.32105469 121.94730469 88.86085938 121.36335937 88.38671875 120.76171875 C87.01582318 119.02010212 85.64800009 117.27612115 84.28125 115.53125 C80.08792019 110.18002107 75.88057244 104.84215746 71.61914062 99.54492188 C66.84763534 93.61328589 62.16461867 87.62663868 57.5625 81.5625 C52.7206864 75.18436262 47.74228069 68.93776579 42.66870117 62.74291992 C38.50637099 57.65156017 34.4764848 52.47449154 30.48828125 47.24609375 C27.25930957 43.01777165 23.96151695 38.84362948 20.66552734 34.66748047 C18.40677716 31.8028262 16.18924783 28.91899711 14 26 C13.67 65.6 13.34 105.2 13 146 C8.71 146 4.42 146 0 146 C0 97.82 0 49.64 0 0 Z " fill="#4A4E4C" transform="translate(1275,504)"/>
<path d="M0 0 C12 0 12 0 14.97265625 2.3515625 C15.66230469 3.43179687 16.35195312 4.51203125 17.0625 5.625 C17.87568797 6.8281203 18.69086282 8.02989957 19.5078125 9.23046875 C19.91418945 9.8548584 20.32056641 10.47924805 20.73925781 11.12255859 C22.80241543 14.19492151 25.12362285 17.05218941 27.4375 19.9375 C28.36432043 21.11246228 29.29009752 22.28824829 30.21484375 23.46484375 C30.67487793 24.04862793 31.13491211 24.63241211 31.60888672 25.23388672 C33.90874237 28.15371048 36.20415945 31.07701893 38.5 34 C39.4166451 35.16668361 40.33331177 36.33335027 41.25 37.5 C57.75 58.5 57.75 58.5 59.12475586 60.24975586 C60.04215009 61.4173041 60.95963067 62.58478449 61.87719727 63.75219727 C64.15844245 66.6548279 66.43821214 69.55859274 68.71484375 72.46484375 C72.91064668 77.81777163 77.11960449 83.15803701 81.3828125 88.45751953 C86.87839487 95.28923335 92.25668208 102.19955823 97.54833984 109.19067383 C98.05703613 109.86122803 98.56573242 110.53178223 99.08984375 111.22265625 C99.53191162 111.80797119 99.97397949 112.39328613 100.42944336 112.99633789 C102.55886061 115.71297513 104.79024742 118.34829691 107 121 C107.33 81.07 107.66 41.14 108 0 C111.96 0 115.92 0 120 0 C120 48.18 120 96.36 120 146 C109 146 109 146 106.08984375 143.83203125 C105.37957031 142.83558594 104.66929687 141.83914063 103.9375 140.8125 C103.53450684 140.27149658 103.13151367 139.73049316 102.71630859 139.1730957 C101.87158829 138.03506519 101.04123427 136.88623956 100.22509766 135.72753906 C98.27770066 132.98146868 96.19176904 130.34430359 94.125 127.6875 C93.28978878 126.59288703 92.45516371 125.49782659 91.62109375 124.40234375 C88.8667913 120.80537702 86.03026348 117.27719245 83.1875 113.75 C78.89318781 108.41717595 74.7007522 103.01718629 70.5625 97.5625 C65.7201822 91.18346822 60.74146859 84.93576261 55.66650391 78.74072266 C52.35424021 74.68994758 49.10966889 70.59881232 45.9375 66.4375 C42.41715637 61.82130746 38.82976185 57.27044968 35.1875 52.75 C30.07521251 46.40371209 25.10501776 39.95678965 20.18823242 33.45800781 C19.6697876 32.77448242 19.15134277 32.09095703 18.6171875 31.38671875 C17.93052002 30.47732544 17.93052002 30.47732544 17.22998047 29.54956055 C15.94007714 27.86392825 15.94007714 27.86392825 14 26 C13.67 65.6 13.34 105.2 13 146 C8.71 146 4.42 146 0 146 C0 97.82 0 49.64 0 0 Z " fill="#454A48" transform="translate(171,504)"/>
<path d="M0 0 C4.29 0 8.58 0 13 0 C13 21.78 13 43.56 13 66 C44.02 66 75.04 66 107 66 C107 44.22 107 22.44 107 0 C111.29 0 115.58 0 120 0 C120 48.18 120 96.36 120 146 C115.71 146 111.42 146 107 146 C107 123.56 107 101.12 107 78 C75.98 78 44.96 78 13 78 C13 100.44 13 122.88 13 146 C8.71 146 4.42 146 0 146 C0 97.82 0 49.64 0 0 Z " fill="#454A48" transform="translate(1593,504)"/>
<path d="M0 0 C8.94630665 -0.0935409 17.89243963 -0.16418423 26.83913231 -0.20724869 C30.99547225 -0.22793922 35.1514726 -0.25590773 39.30761719 -0.30175781 C82.16014669 -0.76196773 82.16014669 -0.76196773 100 9 C100.83660156 9.44085937 101.67320312 9.88171875 102.53515625 10.3359375 C118.70035538 19.38045386 129.05453081 33.58994307 134.25 51.1875 C139.59769104 70.36467073 137.824834 91.08820821 129 109 C118.58702558 126.94141172 102.98537304 138.51927848 83 144 C73.75893449 146.28366912 64.62009546 146.2615132 55.17578125 146.1953125 C53.75728513 146.19236418 52.33878682 146.19032861 50.92028809 146.18920898 C45.71765842 146.178813 40.51507563 146.15089087 35.3125 146.125 C17.8328125 146.063125 17.8328125 146.063125 0 146 C0 121.91 0 97.82 0 73 C4.29 73 8.58 73 13 73 C13 93.46 13 113.92 13 135 C25.0965625 134.8453125 25.0965625 134.8453125 37.4375 134.6875 C41.19918579 134.65015747 41.19918579 134.65015747 45.03686523 134.61206055 C65.79382182 134.32265858 84.79782664 132.79841698 102 120 C103.03125 119.2575 104.0625 118.515 105.125 117.75 C117.38594507 106.0221395 122.85774554 89.70956794 123.375 73 C122.86554439 58.34335387 118.43840166 41.45971225 107.8671875 30.57421875 C89.79640583 15.33881077 70.52797873 11.97910132 47.4609375 11.68359375 C46.08516898 11.66297197 44.70940604 11.64197434 43.33364868 11.62062073 C39.74664899 11.56593852 36.15959736 11.51629637 32.57250977 11.46777344 C28.89855434 11.41716012 25.22467251 11.36168393 21.55078125 11.30664062 C14.36725017 11.19971979 7.18365707 11.09813372 0 11 C0 7.37 0 3.74 0 0 Z " fill="#464B49" transform="translate(340,504)"/>
<path d="M0 0 C8.32894253 -0.09349073 16.65765869 -0.16415934 24.98699951 -0.20724869 C28.85643303 -0.22794995 32.72550248 -0.25593887 36.59472656 -0.30175781 C40.34250358 -0.34585086 44.08993488 -0.36926757 47.83795166 -0.37950897 C49.25381907 -0.38678856 50.66967182 -0.40099583 52.08538818 -0.42292023 C69.86375825 -0.68679671 87.77650646 3.17426159 101.03125 15.8046875 C109.89939054 25.69336802 113.3890359 38.37784744 113.14453125 51.4921875 C112.42891324 63.90912695 108.70025804 74.98184843 100.05078125 84.1875 C94.08929701 89.45631655 87.29786705 92.99233945 80 96 C80.73863281 96.969375 81.47726562 97.93875 82.23828125 98.9375 C87.95029889 106.47155252 93.51475948 114.07241523 98.82861328 121.89282227 C102.89945106 127.88251634 107.07896352 133.79165772 111.29296875 139.68139648 C115 144.89256059 115 144.89256059 115 146 C109.91350868 147.00062124 104.97893957 147.69274139 100 146 C95.39932811 142.53544516 92.50020347 137.24562717 89.51220703 132.41748047 C87.43456989 129.09607863 85.20775257 125.88646665 82.97900391 122.6652832 C81.91064755 121.1169021 80.85089978 119.5625246 79.80224609 118.00073242 C78.78384345 116.48472003 77.73590471 114.98821481 76.66235352 113.51074219 C75 111 75 111 73.55444336 107.77832031 C71.54920891 104.00238502 69.77601384 101.06780162 66 99 C57.21504334 96.95620648 47.87101487 97.87905821 38.9375 98.25 C36.4252571 98.31023554 33.91287619 98.36498093 31.40039062 98.4140625 C25.26075301 98.53567962 19.14032107 98.77029627 13 99 C13 114.51 13 130.02 13 146 C8.71 146 4.42 146 0 146 C0 126.86 0 107.72 0 88 C6.23583984 87.94392578 6.23583984 87.94392578 12.59765625 87.88671875 C15.95558339 87.84849374 19.31344948 87.80742233 22.67131805 87.7644577 C26.19206987 87.72017602 29.71271306 87.68066842 33.23364258 87.65356445 C37.29276009 87.62208116 41.35129679 87.56731529 45.41015625 87.51171875 C47.26266747 87.50213387 47.26266747 87.50213387 49.15260315 87.49235535 C64.19364456 87.24427456 79.90883403 85.09116597 91 74 C97.52080665 66.19366289 99.43473688 56.22031316 98.875 46.25 C97.65730862 35.69667474 94.44857642 27.5698693 86.22265625 20.46484375 C73.74875643 11.84123859 58.08736205 11.88680555 43.5546875 11.68359375 C42.30366241 11.66281265 41.05263733 11.64203156 39.76370239 11.62062073 C36.4726118 11.56668972 33.18149322 11.51633091 29.89031982 11.46777344 C26.51797643 11.41711526 23.14571202 11.36166297 19.7734375 11.30664062 C13.18235326 11.2000579 6.59120775 11.09863659 0 11 C0 7.37 0 3.74 0 0 Z " fill="#464B49" transform="translate(512,504)"/>
<path d="M0 0 C-1.32 3.3 -2.64 6.6 -4 10 C-8.38451737 9.12309653 -10.80312061 8.1956139 -14.625 6.125 C-30.85802798 -2.20116564 -48.57914608 -2.96816945 -66 2 C-73.36403616 4.46659463 -78.52827464 9.28588463 -82.13671875 16.16796875 C-84.81270051 23.00927959 -84.24787245 29.39503514 -81.875 36.25 C-75.60524706 45.44563765 -65.85358756 49.03540975 -55.5 51.8125 C-53.6470264 52.32903615 -51.79416641 52.84598004 -49.94140625 53.36328125 C-46.92099813 54.19665375 -43.89990412 55.02747822 -40.87841797 55.85693359 C-16.71767732 62.52826637 -16.71767732 62.52826637 -8 68 C-7.39671875 68.37382813 -6.7934375 68.74765625 -6.171875 69.1328125 C0.34251987 73.83765324 4.4318595 82.01061108 5.75390625 89.79296875 C6.79409138 99.12161317 5.8933977 108.38808144 0.3125 116.25 C-9.00504568 127.44479075 -19.78644138 132.5109355 -34 135 C-38.44822381 135.4056012 -42.84771976 135.47779876 -47.3125 135.4375 C-49.07799194 135.42722778 -49.07799194 135.42722778 -50.87915039 135.41674805 C-60.16032712 135.24635169 -68.24108837 134.10570911 -77 131 C-78.08152344 130.62617187 -79.16304687 130.25234375 -80.27734375 129.8671875 C-87.9742106 126.93597213 -95.14156288 122.85843712 -101 117 C-100.65561395 112.86736741 -98.93570031 109.61891796 -97 106 C-93.7913857 107.50775163 -90.94131691 109.33849118 -88 111.3125 C-71.42315073 121.87338013 -51.86781216 125.89359086 -32.56689453 121.86791992 C-24.07926144 119.84376079 -17.28164747 116.87066111 -11.5625 110.125 C-8.17111984 103.34223969 -7.3610183 97.44486603 -9 90 C-11.25971881 83.3537682 -16.32438598 78.88951745 -22.47290039 75.72875977 C-31.11812403 72.07432402 -39.91672642 69.75190321 -49 67.5 C-65.95363913 63.29689481 -83.30011721 58.97402075 -94 44 C-98.38591583 36.34077198 -99.14962759 26.99254696 -97.50390625 18.4140625 C-94.77062049 8.37657243 -89.23471105 -0.04763853 -80.375 -5.6640625 C-57.21673012 -18.16706459 -20.80329281 -16.93291275 0 0 Z " fill="#464C4A" transform="translate(888,516)"/>
<path d="M0 0 C0.77601562 0.65226563 1.55203125 1.30453125 2.3515625 1.9765625 C1.77580586 5.32906951 0.75849987 6.91474879 -1.7109375 9.2265625 C-2.25878906 9.74734375 -2.80664062 10.268125 -3.37109375 10.8046875 C-3.79261719 11.19140625 -4.21414063 11.578125 -4.6484375 11.9765625 C-7.74519822 10.5733428 -10.07001116 8.86646834 -12.6484375 6.6640625 C-26.6374617 -4.39809832 -43.58336474 -5.21784329 -60.6484375 -4.0234375 C-77.0376429 -1.89771225 -90.14466089 6.80280426 -100.4609375 19.4140625 C-110.24545053 32.69797783 -114.51325349 49.25193573 -112.1171875 65.6015625 C-109.81715268 78.00175024 -106.25968768 89.60804012 -96.93359375 98.63671875 C-95.6484375 99.9765625 -95.6484375 99.9765625 -95.6484375 101.9765625 C-95.08125 102.23824219 -94.5140625 102.49992188 -93.9296875 102.76953125 C-91.4635758 104.0743746 -89.37796973 105.61319744 -87.1484375 107.2890625 C-73.12247433 117.21894793 -56.45526012 120.35465759 -39.5234375 118.3515625 C-28.55128637 116.47132916 -19.73251134 112.62313486 -10.98828125 105.74609375 C-8.92458987 104.18540561 -6.99875799 103.03502092 -4.6484375 101.9765625 C-3.44638286 103.04372322 -2.26211417 104.13094587 -1.0859375 105.2265625 C-0.42464844 105.82984375 0.23664063 106.433125 0.91796875 107.0546875 C2.3515625 108.9765625 2.3515625 108.9765625 2.40234375 110.93359375 C-2.26696815 120.011847 -16.01258894 124.98897786 -25.015625 128.1640625 C-46.37474668 134.55847731 -69.34050445 132.341104 -89.05493164 122.17944336 C-107.03258718 112.40377137 -118.20923622 96.89607517 -124.19018555 77.65795898 C-129.40887953 59.64009838 -127.29299963 38.60794834 -118.6484375 21.9765625 C-108.16604483 3.00343177 -92.88054249 -8.44834471 -72.4609375 -15.0546875 C-47.12023071 -21.63352484 -20.20432463 -16.53253761 0 0 Z " fill="#464B49" transform="translate(1936.6484375,520.0234375)"/>
<path d="M0 0 C2.35901934 1.86934912 4.65891492 3.77246233 6.91015625 5.76953125 C6.33439961 9.12203826 5.31709362 10.70771754 2.84765625 13.01953125 C2.29980469 13.5403125 1.75195312 14.06109375 1.1875 14.59765625 C0.76597656 14.984375 0.34445312 15.37109375 -0.08984375 15.76953125 C-3.18660447 14.36631155 -5.51141741 12.65943709 -8.08984375 10.45703125 C-22.07886795 -0.60512957 -39.02477099 -1.42487454 -56.08984375 -0.23046875 C-70.62014498 1.65415149 -81.89468601 8.59235439 -92.08984375 18.76953125 C-92.66605469 19.33414063 -93.24226563 19.89875 -93.8359375 20.48046875 C-104.52852254 31.8673775 -108.47544309 48.26369014 -108.3046875 63.4609375 C-107.1840617 80.71857478 -100.31564397 96.62090767 -87.3828125 108.19140625 C-72.14352855 119.78983123 -53.94669754 124.36154421 -34.96484375 122.14453125 C-23.99269262 120.26429791 -15.17391759 116.41610361 -6.4296875 109.5390625 C-4.08984375 107.76953125 -4.08984375 107.76953125 -0.08984375 105.76953125 C2.22015625 108.07953125 4.53015625 110.38953125 6.91015625 112.76953125 C1.59407901 123.40168574 -10.01494143 128.14633955 -20.671875 132.09765625 C-41.90317046 138.41146558 -64.93887451 136.06234227 -84.49853516 125.97021484 C-102.03216451 116.42902365 -113.90486917 101.28077622 -119.52734375 82.26953125 C-124.87205869 62.13697274 -122.58802822 41.17249061 -112.52734375 22.9375 C-101.86684249 5.29338333 -86.26736028 -6.32396798 -66.33984375 -11.54296875 C-43.77243741 -16.83076144 -18.98307859 -13.70333486 0 0 Z " fill="#464B49" transform="translate(1552.08984375,516.23046875)"/>
<path d="M0 0 C2.35901934 1.86934912 4.65891492 3.77246233 6.91015625 5.76953125 C6.33439961 9.12203826 5.31709362 10.70771754 2.84765625 13.01953125 C2.29980469 13.5403125 1.75195312 14.06109375 1.1875 14.59765625 C0.76597656 14.984375 0.34445312 15.37109375 -0.08984375 15.76953125 C-3.18660447 14.36631155 -5.51141741 12.65943709 -8.08984375 10.45703125 C-22.07886795 -0.60512957 -39.02477099 -1.42487454 -56.08984375 -0.23046875 C-70.62014498 1.65415149 -81.89468601 8.59235439 -92.08984375 18.76953125 C-92.66605469 19.33414063 -93.24226562 19.89875 -93.8359375 20.48046875 C-102.48828138 29.69465314 -107.32491864 43.27575439 -108.08984375 55.76953125 C-108.14269531 56.57777344 -108.19554687 57.38601563 -108.25 58.21875 C-108.82775864 75.4259096 -102.7929611 91.50474787 -91.46337891 104.33007812 C-79.64635895 116.71421422 -62.57899128 121.97242899 -45.921875 122.765625 C-30.98532704 122.78085084 -18.1841341 118.78353705 -6.4296875 109.5390625 C-4.08984375 107.76953125 -4.08984375 107.76953125 -0.08984375 105.76953125 C2.22015625 108.07953125 4.53015625 110.38953125 6.91015625 112.76953125 C1.59407901 123.40168574 -10.01494143 128.14633955 -20.671875 132.09765625 C-41.90317046 138.41146558 -64.93887451 136.06234227 -84.49853516 125.97021484 C-102.01225762 116.43985629 -113.87278486 101.30938175 -119.52734375 82.33203125 C-120.75869728 77.47713518 -121.87211672 72.77725286 -122.08984375 67.76953125 C-122.1671875 66.2690625 -122.1671875 66.2690625 -122.24609375 64.73828125 C-122.83793875 42.84001631 -115.72497452 23.29439903 -100.66796875 7.1875 C-74.10388173 -17.72639374 -29.77190327 -21.49147505 0 0 Z " fill="#464B49" transform="translate(1090.08984375,516.23046875)"/>
<path d="M0 0 C3.35286458 0.03255208 6.70572917 0.06510417 10.05859375 0.09765625 C15.60167614 11.01019781 20.85977035 22.02255346 25.93359375 33.16015625 C27.04505681 35.59139974 28.15755185 38.02216933 29.27011108 40.45291138 C30.03785494 42.13040303 30.80528867 43.80803665 31.57241821 45.48580933 C35.37524155 53.80007713 39.21206396 62.09850926 43.05014038 70.39654541 C50.91963594 87.41445404 58.71961336 104.46298411 66.45019531 121.54443359 C67.96099646 124.88204743 69.47450401 128.21842276 70.98828125 131.5546875 C71.82448488 133.40222332 72.66044456 135.24986958 73.49609375 137.09765625 C73.86806885 137.91709717 74.24004395 138.73653809 74.62329102 139.58081055 C77.05859375 144.98202607 77.05859375 144.98202607 77.05859375 146.09765625 C72.43859375 146.09765625 67.81859375 146.09765625 63.05859375 146.09765625 C57.95056383 136.09993834 53.14457903 126.02193705 48.64663696 115.73587036 C42.54914268 101.80208055 36.27060867 87.95753627 29.87109375 74.16015625 C22.46944778 58.19615883 15.20366084 42.17821454 8.05859375 26.09765625 C7.44709473 24.7223877 7.44709473 24.7223877 6.82324219 23.31933594 C5.90131703 21.24560928 4.97973977 19.17172908 4.05859375 17.09765625 C0.89576598 20.81700411 -0.86613482 25.02542556 -2.828125 29.4453125 C-3.20212936 30.27677795 -3.57613373 31.10824341 -3.96147156 31.96490479 C-5.18837947 34.69469086 -6.40854596 37.42743762 -7.62890625 40.16015625 C-8.91701307 43.02974907 -10.20692827 45.8985245 -11.49694824 48.76725769 C-12.37193651 50.71330616 -13.2463629 52.65960736 -14.12023926 54.6061554 C-17.81903345 62.84175454 -21.56541223 71.05491422 -25.33023071 79.26049805 C-33.5020221 97.07330898 -41.57302285 114.93087569 -49.48828125 132.859375 C-49.86597656 133.71394287 -50.24367188 134.56851074 -50.6328125 135.44897461 C-51.31481818 136.99434034 -51.99467446 138.54065733 -52.671875 140.08813477 C-54.83170965 144.98795965 -54.83170965 144.98795965 -55.94140625 146.09765625 C-58.2945418 146.17037366 -60.64974293 146.18136493 -63.00390625 146.16015625 C-64.29425781 146.15113281 -65.58460937 146.14210938 -66.9140625 146.1328125 C-68.41259766 146.11541016 -68.41259766 146.11541016 -69.94140625 146.09765625 C-66.1835029 136.76757089 -62.02556397 127.64851551 -57.7878418 118.52929688 C-55.77563657 114.19883793 -53.77111682 109.864821 -51.765625 105.53125 C-51.35794891 104.65081024 -50.95027283 103.77037048 -50.53024292 102.86325073 C-46.63866527 94.4544121 -42.78617195 86.02797579 -38.94140625 77.59765625 C-32.78179488 64.09522038 -26.57161894 50.61663223 -20.34133911 37.14666748 C-15.60100044 26.89652773 -10.8788314 16.64016497 -6.31274414 6.31079102 C-3.56266603 0.1182824 -3.56266603 0.1182824 0 0 Z " fill="#464C4A" transform="translate(2014.94140625,503.90234375)"/>
<path d="M0 0 C3.35286458 0.03255208 6.70572917 0.06510417 10.05859375 0.09765625 C14.91485908 9.6618381 19.59415923 19.27277372 23.98480225 29.0604248 C25.58332648 32.62207022 27.19415476 36.17814721 28.8046875 39.734375 C29.14570496 40.48768097 29.48672241 41.24098694 29.83807373 42.01712036 C33.98055702 51.15319818 38.20799979 60.24980526 42.43359375 69.34765625 C44.04199165 72.81234922 45.65002243 76.27721243 47.2578125 79.7421875 C47.65550842 80.599263 48.05320435 81.4563385 48.46295166 82.33938599 C52.37824034 90.780715 56.27688777 99.22965837 60.16461182 107.68371582 C60.86824791 109.21361503 61.57228736 110.74332882 62.27679443 112.27282715 C66.07897642 120.52879484 69.84119532 128.80178154 73.546875 137.1015625 C73.89832077 137.88587143 74.24976654 138.67018036 74.61186218 139.47825623 C77.05859375 144.97954927 77.05859375 144.97954927 77.05859375 146.09765625 C72.43859375 146.09765625 67.81859375 146.09765625 63.05859375 146.09765625 C57.62157186 135.46235114 52.53670291 124.71018466 47.67816162 113.79919434 C45.72110513 109.40453933 43.75255921 105.0150304 41.78515625 100.625 C41.38716827 99.73624176 40.9891803 98.84748352 40.57913208 97.93179321 C36.42856323 88.67240806 32.19752554 79.45045996 27.96063232 70.23034668 C24.107508 61.84004553 20.30411959 53.43026087 16.57421875 44.984375 C16.20479156 44.14856903 15.83536438 43.31276306 15.45474243 42.45162964 C13.6657936 38.40144475 11.88294978 34.34871908 10.10888672 30.29199219 C9.46984761 28.8404415 8.83069371 27.38894133 8.19140625 25.9375 C7.90259583 25.27159348 7.6137854 24.60568695 7.31622314 23.91960144 C6.1208605 21.21505432 5.16953275 19.20859525 3.05859375 17.09765625 C-5.74434372 36.03749588 -14.50820937 54.98978428 -22.94140625 74.09765625 C-28.67745481 87.09060807 -34.54199355 100.01923376 -40.50390625 112.91015625 C-41.06476929 114.12288208 -41.06476929 114.12288208 -41.63696289 115.36010742 C-46.38321088 125.61616223 -51.15677013 135.85946218 -55.94140625 146.09765625 C-60.56140625 146.09765625 -65.18140625 146.09765625 -69.94140625 146.09765625 C-66.32812284 136.66717572 -62.06992809 127.56337815 -57.81640625 118.41015625 C-57.01623674 116.68291123 -56.21635621 114.95553231 -55.41674805 113.22802734 C-53.75573745 109.6402395 -52.09349362 106.05302736 -50.43017578 102.46630859 C-46.53021378 94.05539625 -42.64073747 85.63964319 -38.75390625 77.22265625 C-38.38141754 76.41622681 -38.00892883 75.60979736 -37.62515259 74.77893066 C-32.38102147 63.42273508 -27.17364572 52.05040476 -22.00390625 40.66015625 C-21.69778412 39.985755 -21.39166199 39.31135376 -21.07626343 38.61651611 C-19.88464281 35.99105712 -18.69323981 33.36549946 -17.5019989 30.73986816 C-14.52995019 24.1895008 -11.55313146 17.64134912 -8.56640625 11.09765625 C-7.87816772 9.5828064 -7.87816772 9.5828064 -7.17602539 8.03735352 C-6.7608667 7.12912842 -6.34570801 6.22090332 -5.91796875 5.28515625 C-5.55783691 4.49496094 -5.19770508 3.70476562 -4.82666016 2.890625 C-3.41091452 0.02321299 -3.41940706 0.11352613 0 0 Z " fill="#464C4A" transform="translate(1172.94140625,503.90234375)"/>
<path d="M0 0 C4.62 0 9.24 0 14 0 C14.93457031 2.05089844 15.86914062 4.10179687 16.83203125 6.21484375 C24.35476939 22.7102187 31.92613842 39.181905 39.5625 55.625 C45.92651373 69.3308891 52.2431943 83.05652168 58.47509766 96.82299805 C59.07189188 98.14113512 59.66873447 99.45925029 60.265625 100.77734375 C60.56161591 101.43099411 60.85760681 102.08464447 61.16256714 102.75810242 C63.58422909 108.09879041 66.03193841 113.42729164 68.484375 118.75390625 C69.23484017 120.38620368 69.98524761 122.01852765 70.7355957 123.65087891 C71.82882594 126.02907395 72.9232472 128.40667744 74.02182007 130.78240967 C75.02697403 132.9562965 76.02759956 135.13221498 77.02734375 137.30859375 C77.32964905 137.9589711 77.63195435 138.60934845 77.94342041 139.2794342 C80 143.77253092 80 143.77253092 80 146 C75.38 146 70.76 146 66 146 C47.44165854 106.13447875 47.44165854 106.13447875 38.78881836 86.70336914 C34.54813497 77.18917885 30.21889555 67.71740584 25.875 58.25 C19.44223317 44.22697042 13.14869961 30.15035035 7 16 C-0.8210515 32.55061722 -8.56401753 49.12607207 -16.01245117 65.84838867 C-20.28214482 75.42652522 -24.62973673 84.96737381 -29 94.5 C-34.16601707 105.77341104 -39.30086331 117.05990768 -44.375 128.375 C-44.65021484 128.98786865 -44.92542969 129.6007373 -45.20898438 130.23217773 C-45.98169889 131.9537127 -46.75260977 133.67605689 -47.5234375 135.3984375 C-47.95575684 136.36442871 -48.38807617 137.33041992 -48.83349609 138.32568359 C-49.93989018 140.86219275 -50.97224808 143.4306202 -52 146 C-56.62 146 -61.24 146 -66 146 C-65.12059173 141.60295863 -64.05310892 138.65801788 -62.1484375 134.671875 C-61.71287285 133.7528968 -61.71287285 133.7528968 -61.26850891 132.81535339 C-60.63918841 131.48850706 -60.00747287 130.1627946 -59.37362671 128.83810425 C-57.64681401 125.22738073 -55.93945546 121.60746727 -54.23046875 117.98828125 C-53.87658585 117.23982437 -53.52270294 116.49136749 -53.15809631 115.7202301 C-49.59033323 108.16090846 -46.13092804 100.55406463 -42.6875 92.9375 C-37.21721893 80.85140517 -31.69155148 68.79206184 -26.125 56.75 C-25.75307526 55.94536316 -25.38115051 55.14072632 -24.99795532 54.31170654 C-24.62649384 53.50807678 -24.25503235 52.70444702 -23.87231445 51.87646484 C-23.11798511 50.24447363 -22.36367201 48.61247491 -21.609375 46.98046875 C-21.23467575 46.16980957 -20.8599765 45.35915039 -20.47392273 44.52392578 C-16.09340696 35.04331697 -11.73348978 25.55325009 -7.375 16.0625 C-6.99893616 15.24366333 -6.62287231 14.42482666 -6.2354126 13.58117676 C-4.15647011 9.05433426 -2.07800183 4.52727437 0 0 Z " fill="#464B49" transform="translate(66,504)"/>
<path d="M0 0 C4.29 0 8.58 0 13 0 C13 48.18 13 96.36 13 146 C8.71 146 4.42 146 0 146 C0 97.82 0 49.64 0 0 Z " fill="#454A48" transform="translate(1762,504)"/>
<path d="M0 0 C2.5 1.6875 2.5 1.6875 4 3 C4.33 1.02 4.66 -0.96 5 -3 C7.31 -3 9.62 -3 12 -3 C12.10184887 4.24068111 12.17165356 11.48117583 12.21972656 18.72241211 C12.23977812 21.18309432 12.26702647 23.64372925 12.30175781 26.10424805 C12.3505588 29.65164898 12.37303428 33.19841707 12.390625 36.74609375 C12.41127014 37.8370787 12.43191528 38.92806366 12.45318604 40.05210876 C12.45512976 46.74556067 11.70632283 52.29134443 8 58 C2.38488129 63.50082371 -4.01236242 65.07288284 -11.75 65.3125 C-20.39029267 65.15008848 -28.13760633 63.37863288 -35 58 C-34.49396008 55.83125748 -34.00016187 54.00032373 -33 52 C-28.85326256 52.60981433 -25.71444984 54.10325966 -22 56 C-16.06127945 57.85428405 -8.8507172 58.02055319 -3 55.8125 C0.86399099 53.47800544 2.16514104 51.27688808 3.6875 47.125 C4.13584203 44.07627422 4.05914146 41.07535591 4 38 C3.154375 38.78375 2.30875 39.5675 1.4375 40.375 C-3.62546775 44.55076546 -9.25650048 45.43157226 -15.671875 45.24609375 C-23.04345505 44.46688311 -29.17391462 41.70128221 -34 36 C-38.80152951 28.84032287 -39.05457555 21.02029535 -37.59765625 12.703125 C-35.6762254 6.22300526 -30.80154912 2.18783031 -25.0859375 -1.1015625 C-16.79757352 -4.75117133 -7.99494541 -3.7870794 0 0 Z M-27.953125 11.20703125 C-30.39764141 15.39372167 -31.34463932 19.59144113 -30.65625 24.40234375 C-29.0853285 30.0221284 -26.83980157 32.80573097 -22 36 C-17.83030949 38.30430265 -13.67446478 38.55308553 -9 38 C-2.95128621 36.22710113 0.53316477 33.11881711 4 28 C5.76974865 22.69075405 5.69835764 17.9258605 3.5 12.8125 C0.9800006 8.36079375 -2.18327732 5.73113494 -7 4 C-15.50418475 2.74548197 -22.5069799 4.0457041 -27.953125 11.20703125 Z " fill="#474D4B" transform="translate(1268,735)"/>
<path d="M0 0 C37.96428571 0 37.96428571 0 46 7 C50.40254998 11.81871142 51.82364343 16.80455469 52.13671875 23.25390625 C51.81731364 29.66938603 49.71960065 35.53551289 45 40 C39.40658317 43.34019831 34.58073295 45.12966211 28.01953125 45.09765625 C26.85615234 45.09443359 25.69277344 45.09121094 24.49414062 45.08789062 C23.27919922 45.07951172 22.06425781 45.07113281 20.8125 45.0625 C19.58595703 45.05798828 18.35941406 45.05347656 17.09570312 45.04882812 C14.06378135 45.03703076 11.0318846 45.01909514 8 45 C8 51.93 8 58.86 8 66 C5.36 66 2.72 66 0 66 C0 44.22 0 22.44 0 0 Z M8 7 C8 17.23 8 27.46 8 38 C11.795 38.0825 15.59 38.165 19.5 38.25 C20.68013672 38.28641602 21.86027344 38.32283203 23.07617188 38.36035156 C29.88765022 38.43163982 34.21343103 37.65467514 40 34 C43.42706127 30.46238837 43.89417742 27.42860483 44.25 22.625 C43.8949389 17.4766141 42.39676681 14.43667443 38.8125 10.75 C32.18423852 6.62574842 25.0581732 6.7333156 17.5 6.875 C12.7975 6.936875 12.7975 6.936875 8 7 Z " fill="#474C4A" transform="translate(617,716)"/>
<path d="M0 0 C32.67 0 65.34 0 99 0 C99 3.96 99 7.92 99 12 C66.33 12 33.66 12 0 12 C0 8.04 0 4.08 0 0 Z " fill="#454A48" transform="translate(662,570)"/>
<path d="M0 0 C-0.875 4.75 -0.875 4.75 -2 7 C-8 5 -8 5 -10.8046875 3.94921875 C-17.23807888 2.03807681 -24.28656321 2.06433214 -30.625 4.25 C-33.94281645 6.60740275 -33.94281645 6.60740275 -36 10 C-35.93663296 13.05217922 -35.5325883 15.99697199 -35 19 C-31.61607016 20.40800411 -28.25397325 21.5592739 -24.7265625 22.55078125 C-23.7365625 22.83759766 -22.7465625 23.12441406 -21.7265625 23.41992188 C-19.66916506 24.01200666 -17.60925656 24.59543869 -15.546875 25.16992188 C-8.93793666 27.10539667 -2.76283374 29.0676713 1.375 34.95703125 C3.40716156 40.99001087 3.45103717 45.71607377 0.8125 51.6875 C-3.4007116 57.06297686 -7.41203356 59.46870615 -14 61 C-25.06661858 61.97914527 -34.86517601 61.33046399 -44.1875 54.75 C-44.785625 54.1725 -45.38375 53.595 -46 53 C-45.01 50.03 -45.01 50.03 -44 47 C-41.56896043 47.94682594 -39.1877065 48.90648804 -36.8515625 50.0703125 C-29.47971997 53.56223791 -22.05658025 53.9936449 -14 53 C-9.80788469 51.26790263 -9.80788469 51.26790263 -6.5625 48.25 C-5.66768133 44.67072532 -5.88342947 42.53580668 -7 39 C-12.60972552 33.98705379 -19.29479765 32.71780024 -26.40820312 30.87670898 C-33.0186337 29.12158738 -37.78435259 26.90445572 -42.9375 22.25 C-45.27717737 17.29538909 -45.6269225 12.04476309 -44 6.8125 C-42.08949475 2.4617585 -39.09384408 -0.61950548 -35 -3 C-22.90708413 -7.2037279 -11.25528663 -5.62764331 0 0 Z " fill="#484D4B" transform="translate(1081,721)"/>
<path d="M0 0 C32.67 0 65.34 0 99 0 C99 3.63 99 7.26 99 11 C66.33 11 33.66 11 0 11 C0 7.37 0 3.74 0 0 Z " fill="#454A48" transform="translate(662,639)"/>
<path d="M0 0 C32.67 0 65.34 0 99 0 C99 3.63 99 7.26 99 11 C66.33 11 33.66 11 0 11 C0 7.37 0 3.74 0 0 Z " fill="#454A48" transform="translate(662,502)"/>
<path d="M0 0 C4.93153112 3.84004536 8.27340099 7.90612114 10 14 C10 17.63 10 21.26 10 25 C-3.2 25 -16.4 25 -30 25 C-26.15102524 32.88394901 -26.15102524 32.88394901 -20 38 C-14.30732413 39.89755862 -8.12408689 39.84963476 -2.5625 37.625 C-1.716875 37.08875 -0.87125 36.5525 0 36 C1.33333333 35.33333333 2.66666667 34.66666667 4 34 C5.5625 35.25 5.5625 35.25 7 37 C7 38.9375 7 38.9375 6 41 C0.98260954 45.87403644 -4.37290614 47.29030673 -11.25 47.375 C-18.51018268 47.22615799 -24.56497833 46.05831855 -30.1015625 41.12890625 C-36.7294622 33.91458744 -37.55672022 27.39073769 -37.3046875 17.890625 C-36.73950269 10.67364972 -34.3129705 7.00487263 -29.125 2.125 C-21.01670353 -4.40627 -9.1280401 -5.46138551 0 0 Z M-25 8 C-28.08100209 11.91370536 -29.00195965 14.00979824 -30 19 C-19.11 19 -8.22 19 3 19 C2.22050181 13.2510317 2.22050181 13.2510317 -0.8125 9.25 C-1.31394531 8.67765625 -1.81539062 8.1053125 -2.33203125 7.515625 C-6.62189045 3.61757964 -10.70789339 3.56817749 -16.30859375 3.6875 C-20.15008077 4.13353623 -22.18067786 5.38696972 -25 8 Z " fill="#484D4B" transform="translate(1344,735)"/>
<path d="M0 0 C4.77728707 4.3618708 6.18935734 8.75064409 7 15 C7.23217251 20.5244038 7.18967921 26.03486858 7.125 31.5625 C7.11494923 33.06314506 7.10582709 34.56379665 7.09765625 36.06445312 C7.07581091 39.70977281 7.0413969 43.35484376 7 47 C4.36 47 1.72 47 -1 47 C-1.33 45.35 -1.66 43.7 -2 42 C-2.7425 42.639375 -3.485 43.27875 -4.25 43.9375 C-9.74029412 48.05522059 -16.36646122 47.62003628 -23 47 C-27.71810373 45.55231475 -31.56604295 43.43839227 -34 39 C-35.55806622 34.32580133 -35.49692753 30.49078259 -33.9375 25.8125 C-30.95372927 21.4812199 -27.4478455 19.55682158 -22.35546875 18.3984375 C-18.09286664 17.89228451 -13.91244731 17.89305278 -9.625 17.9375 C-8.79355469 17.94201172 -7.96210937 17.94652344 -7.10546875 17.95117188 C-5.07028103 17.96286836 -3.03513077 17.98080065 -1 18 C-1.25662245 16.55989519 -1.53090821 15.1229313 -1.8125 13.6875 C-1.96332031 12.88699219 -2.11414063 12.08648438 -2.26953125 11.26171875 C-3.09378833 8.70960726 -3.90725641 7.64683212 -6 6 C-12.38883183 3.87038939 -18.9235482 4.17369505 -25 7.0625 C-25.70125 7.44535156 -26.4025 7.82820312 -27.125 8.22265625 C-29 9 -29 9 -32 8 C-33.1875 5.4375 -33.1875 5.4375 -34 3 C-32.41925436 2.18247697 -30.83528777 1.37118003 -29.25 0.5625 C-28.36828125 0.11003906 -27.4865625 -0.34242188 -26.578125 -0.80859375 C-18.59308183 -4.49865158 -7.63554952 -4.67699553 0 0 Z M-26 27 C-27.54586876 30.09173752 -27.29359521 32.59429552 -27 36 C-24.78136971 38.90717073 -23.48055071 39.83981643 -20 41 C-13.67424931 41.53608057 -9.25543438 40.6848448 -4 37 C-1.28057041 33.94064171 -0.87289691 31.78506419 -0.9375 27.828125 C-0.958125 26.56484375 -0.97875 25.3015625 -1 24 C-3.85475306 23.91843563 -6.70713565 23.85923628 -9.5625 23.8125 C-10.76229492 23.77479492 -10.76229492 23.77479492 -11.98632812 23.73632812 C-17.43451723 23.66961561 -21.18684101 24.38786509 -26 27 Z " fill="#484D4B" transform="translate(765,735)"/>
<path d="M0 0 C2.31 0 4.62 0 7 0 C11.50112257 8.59982689 15.55617987 17.35398103 19.4375 26.25 C19.88657715 27.27424072 20.3356543 28.29848145 20.79833984 29.35375977 C21.21422363 30.31467529 21.63010742 31.27559082 22.05859375 32.265625 C22.43298584 33.12961914 22.80737793 33.99361328 23.19311523 34.88378906 C24 37 24 37 24 39 C24.66 39 25.32 39 26 39 C26.53753906 37.2365625 26.53753906 37.2365625 27.0859375 35.4375 C29.19840758 29.1025721 31.97286747 23.06085683 34.72558594 16.98583984 C35.63472673 14.97852409 36.53656701 12.96804239 37.4375 10.95703125 C41.85416596 1.14583404 41.85416596 1.14583404 43 0 C45.33297433 -0.04092937 47.66705225 -0.04241723 50 0 C47.92646174 6.65838918 45.37549078 13.00236784 42.54296875 19.37109375 C42.11752274 20.33346451 41.69207672 21.29583527 41.2537384 22.28736877 C40.35740293 24.31109377 39.45890547 26.33386244 38.55834961 28.35571289 C37.19444881 31.42187849 35.84200265 34.49292291 34.49023438 37.56445312 C33.61267262 39.54197455 32.73443924 41.51919808 31.85546875 43.49609375 C31.25982368 44.85280434 31.25982368 44.85280434 30.65214539 46.23692322 C23.10844508 63.07498554 23.10844508 63.07498554 17.6875 66.625 C12.42012431 68.58910619 7.97917087 69.14811901 2.6484375 67.09375 C0.72427963 66.14186978 -1.14447552 65.07957788 -3 64 C-2.34 62.35 -1.68 60.7 -1 59 C3 59 3 59 5 60 C10.52065065 60.59281941 10.52065065 60.59281941 15.3125 58.375 C15.869375 57.59125 16.42625 56.8075 17 56 C17.639375 55.113125 18.27875 54.22625 18.9375 53.3125 C21.50064914 45.32150562 14.49225494 35.31499418 11.125 28.1875 C0 4.53647132 0 4.53647132 0 0 Z " fill="#484D4B" transform="translate(1424,732)"/>
<path d="M0 0 C2.64 0 5.28 0 8 0 C8.01458252 0.96824707 8.02916504 1.93649414 8.04418945 2.93408203 C8.10241567 6.54626324 8.17964536 10.15783683 8.26245117 13.76953125 C8.29558667 15.32900081 8.3236537 16.88858702 8.34643555 18.44824219 C8.38019281 20.69776852 8.43251504 22.94623687 8.48828125 25.1953125 C8.49467117 25.8861795 8.5010611 26.57704651 8.50764465 27.28884888 C8.64557649 31.88954747 9.61495994 35.07294275 12 39 C15.77092192 42.42811084 19.67059002 42.51171431 24.5625 42.3515625 C28.20796018 41.82577497 30.2910535 40.44465904 33 38 C36.70906343 32.88405044 37.12557795 28.48117526 37.31640625 22.265625 C37.37924805 20.32236328 37.37924805 20.32236328 37.44335938 18.33984375 C37.48316671 16.97656524 37.52287906 15.61328394 37.5625 14.25 C37.60572274 12.87108125 37.64933821 11.49217474 37.69335938 10.11328125 C37.79943958 6.7422881 37.9014985 3.37122174 38 0 C40.31 0 42.62 0 45 0 C45 16.5 45 33 45 50 C42.69 50 40.38 50 38 50 C37.505 47.03 37.505 47.03 37 44 C36.278125 44.61875 35.55625 45.2375 34.8125 45.875 C28.61565924 50.55705746 22.550941 50.78451335 15 50 C9.15035365 48.31223318 5.34141302 45.11039639 2 40 C0.36645806 34.58190794 -0.24124307 29.91414045 -0.1953125 24.21875 C-0.1924826 23.51979614 -0.18965271 22.82084229 -0.18673706 22.10070801 C-0.1756727 19.90028684 -0.15059606 17.70029507 -0.125 15.5 C-0.11495235 13.99479761 -0.10582965 12.48958874 -0.09765625 10.984375 C-0.07577893 7.32278062 -0.04134696 3.66143232 0 0 Z " fill="#474C4A" transform="translate(1109,732)"/>
<path d="M0 0 C-0.3125 2.375 -0.3125 2.375 -1 5 C-1.99 5.66 -2.98 6.32 -4 7 C-5.56673693 6.25069103 -7.13333399 5.50108819 -8.69921875 4.75 C-13.55490041 3.1671632 -18.977557 3.33034093 -24 4 C-26.38102691 5.20604539 -26.38102691 5.20604539 -28 7 C-28.75 10 -28.75 10 -28 13 C-23.37010858 16.61203591 -17.94278233 17.2791568 -12.32617188 18.37304688 C-6.89052189 19.52782052 -2.12720726 21.19595406 1.375 25.8125 C2.70681622 30.47385679 2.56495497 34.43396375 0.375 38.75 C-2.13721246 42.72321544 -5.3731282 44.1926065 -9.8046875 45.5546875 C-18.11938971 47.24129969 -27.26932888 46.54631554 -35 43 C-37.625 40.8125 -37.625 40.8125 -39 39 C-38.01 37.35 -37.02 35.7 -36 34 C-34.948125 34.433125 -34.948125 34.433125 -33.875 34.875 C-28.36290772 37.03190567 -23.85024662 38.29314175 -17.875 38.3125 C-16.67617188 38.32925781 -15.47734375 38.34601562 -14.2421875 38.36328125 C-10.79242667 37.97674178 -9.36659786 37.50649527 -7 35 C-6.66602213 31.87413125 -6.66602213 31.87413125 -7 29 C-12.63058796 26.40126709 -18.06104612 24.91999084 -24.12695312 23.71484375 C-29.28695557 22.55495847 -32.23457785 20.74822844 -36 17 C-37.3605163 12.91845111 -37.80116991 9.23411951 -36.31640625 5.09375 C-34.0635951 0.68160533 -31.73568704 -1.22411736 -27 -3 C-17.57295371 -5.8221094 -8.77533965 -3.8694411 0 0 Z " fill="#474D4B" transform="translate(834,736)"/>
<path d="M0 0 C2.10180601 2.10180601 2.75043825 3.14992371 3.0625 6.0625 C1.7425 7.0525 0.4225 8.0425 -0.9375 9.0625 C-3.46801481 7.89457009 -5.33115277 6.73605624 -7.5 4.9375 C-12.81150863 2.04031347 -18.25955045 1.98075013 -24.0625 3.6875 C-28.27588509 5.72154797 -30.48866359 8.62321866 -32.27734375 12.7890625 C-33.93797867 18.50793543 -33.72855798 23.95605328 -31.375 29.4375 C-29.09418918 33.34972411 -26.30674248 35.77742868 -21.9375 37.0625 C-16.47992671 37.82402186 -12.34510681 37.81657508 -7.4375 35.1875 C-6.6125 34.48625 -5.7875 33.785 -4.9375 33.0625 C-3.9475 32.4025 -2.9575 31.7425 -1.9375 31.0625 C-0.2875 32.0525 1.3625 33.0425 3.0625 34.0625 C2.13948955 38.10067073 0.51035169 39.68190251 -2.875 41.8125 C-9.73119253 45.86213895 -16.96937509 46.16418872 -24.703125 44.44921875 C-31.88347306 41.94931229 -36.68478153 37.67252744 -40.03125 30.82421875 C-43.09103361 22.62229881 -42.49731172 15.72931074 -39.328125 7.68359375 C-36.12916216 1.65408795 -30.61279755 -2.45548054 -24.13671875 -4.50390625 C-15.18496833 -6.26881619 -7.56469118 -4.98947716 0 0 Z " fill="#484D4B" transform="translate(986.9375,736.9375)"/>
<path d="M0 0 C2.31 0 4.62 0 7 0 C7 3.3 7 6.6 7 10 C11.95 10 16.9 10 22 10 C22 12.31 22 14.62 22 17 C17.05 17 12.1 17 7 17 C7.07417456 21.18191029 7.15714537 25.36174779 7.26245117 29.54272461 C7.29560557 30.96351202 7.32366692 32.38442813 7.34643555 33.80541992 C7.38015847 35.8539082 7.43247745 37.9012272 7.48828125 39.94921875 C7.51446533 41.17987061 7.54064941 42.41052246 7.56762695 43.6784668 C8.02925514 47.22474094 8.83680727 49.17648157 11 52 C13.16753801 52.63914609 13.16753801 52.63914609 15.5 52.375 C16.2734375 52.34148438 17.046875 52.30796875 17.84375 52.2734375 C20.17919552 52.0482499 20.17919552 52.0482499 23 51 C23.66 52.98 24.32 54.96 25 57 C19.73194806 60.3271907 15.05970573 60.75999654 9 60 C5.74099981 58.54385098 3.28735576 56.74482692 1 54 C-0.21077701 50.36766898 -0.12444164 47.04878013 -0.09765625 43.26953125 C-0.0962413 42.51911057 -0.09482635 41.76868988 -0.09336853 40.99552917 C-0.0877756 38.6011454 -0.07522444 36.20685547 -0.0625 33.8125 C-0.05748408 32.18815239 -0.05292134 30.56380332 -0.04882812 28.93945312 C-0.03780848 24.95959931 -0.02054873 20.97981556 0 17 C-2.97 17 -5.94 17 -9 17 C-9 14.69 -9 12.38 -9 10 C-6.03 10 -3.06 10 0 10 C0 6.7 0 3.4 0 0 Z " fill="#464B49" transform="translate(862,722)"/>
<path d="M0 0 C2.64 0 5.28 0 8 0 C8.33 1.98 8.66 3.96 9 6 C9.804375 5.071875 9.804375 5.071875 10.625 4.125 C15.27036065 -0.03137532 19.95158246 -0.2419367 26 0 C26 2.31 26 4.62 26 7 C25.24074219 7.20496094 24.48148438 7.40992188 23.69921875 7.62109375 C22.70535156 7.89050781 21.71148438 8.15992188 20.6875 8.4375 C19.70136719 8.70433594 18.71523437 8.97117187 17.69921875 9.24609375 C15.78482474 9.78079425 13.88566385 10.37144538 12 11 C10.81608777 13.37625345 10.81608777 13.37625345 10 16 C9.67 16.99 9.34 17.98 9 19 C8.84820986 21.3555448 8.75100711 23.71475123 8.68359375 26.07421875 C8.66281265 26.7580513 8.64203156 27.44188385 8.62062073 28.1464386 C8.55533846 30.3266921 8.49633983 32.50706405 8.4375 34.6875 C8.39429447 36.16732986 8.35067953 37.64714783 8.30664062 39.12695312 C8.19967917 42.75117622 8.09835177 46.37553189 8 50 C5.36 50 2.72 50 0 50 C0 33.5 0 17 0 0 Z " fill="#484D4B" transform="translate(1185,732)"/>
<path d="M0 0 C2.31 0 4.62 0 7 0 C7.33 1.98 7.66 3.96 8 6 C8.70125 5.38125 9.4025 4.7625 10.125 4.125 C14.93085314 0.57284768 19.08400021 -0.28171428 25 0 C25 2.31 25 4.62 25 7 C24.25234375 7.17015625 23.5046875 7.3403125 22.734375 7.515625 C21.74953125 7.75796875 20.7646875 8.0003125 19.75 8.25 C18.77546875 8.48203125 17.8009375 8.7140625 16.796875 8.953125 C13.5574646 10.16564174 12.12093589 11.27844509 10 14 C8.20363696 18.46381253 7.70884137 22.35518646 7.5859375 27.1484375 C7.56657135 27.80582916 7.5472052 28.46322083 7.5272522 29.14053345 C7.46797539 31.21856135 7.42128206 33.29664624 7.375 35.375 C7.33677222 36.7929915 7.29771777 38.21096097 7.2578125 39.62890625 C7.16231829 43.08573461 7.07809811 46.54272983 7 50 C4.69 50 2.38 50 0 50 C0 33.5 0 17 0 0 Z " fill="#464B49" transform="translate(1381,732)"/>
<path d="M0 0 C2.31 0 4.62 0 7 0 C7 22.77 7 45.54 7 69 C4.69 69 2.38 69 0 69 C0 46.23 0 23.46 0 0 Z " fill="#464B49" transform="translate(696,713)"/>
<path d="M0 0 C2.31 0 4.62 0 7 0 C7 16.5 7 33 7 50 C4.69 50 2.38 50 0 50 C0 33.5 0 17 0 0 Z " fill="#464B49" transform="translate(912,732)"/>
<path d="M0 0 C-5.29012006 7.45107097 -15.17013869 16.07885465 -24.11083984 18.59375 C-27.82086842 19.06615354 -31.35244183 18.75400054 -35 18 C-33.43863391 13.31590172 -29.62839896 11.27636356 -25.81640625 8.296875 C-23.53356927 6.43514387 -21.75682562 4.6151447 -19.8125 2.4375 C-14.76673617 -2.09619374 -6.28849685 -0.40765766 0 0 Z " fill="#494E4C" transform="translate(734,475)"/>
<path d="M0 0 C1.10408203 0.03383789 1.10408203 0.03383789 2.23046875 0.06835938 C4.02953842 0.12677073 5.82754753 0.21643663 7.625 0.3125 C3.84163479 4.26129753 -0.17795158 7.65609938 -4.5 11 C-5.12003906 11.48533203 -5.74007813 11.97066406 -6.37890625 12.47070312 C-11.67145387 16.5966139 -14.28088914 18.57178932 -21.0625 18.4375 C-22.24199219 18.41945313 -23.42148438 18.40140625 -24.63671875 18.3828125 C-25.54035156 18.35960937 -26.44398437 18.33640625 -27.375 18.3125 C-25.83932511 14.37510102 -23.403822 12.45953592 -20.125 9.875 C-19.19171875 9.13378906 -18.2584375 8.39257812 -17.296875 7.62890625 C-15.85054687 6.48228516 -15.85054687 6.48228516 -14.375 5.3125 C-13.43914062 4.39984375 -12.50328125 3.4871875 -11.5390625 2.546875 C-7.46338077 -0.33126074 -4.8354981 -0.28418388 0 0 Z " fill="#484D4B" transform="translate(1191.375,474.6875)"/>
<path d="M0 0 C1.175625 0.0825 2.35125 0.165 3.5625 0.25 C5.5625 3.25 5.5625 3.25 5.3125 5.8125 C4.5625 8.25 4.5625 8.25 2.5625 10.25 C-0.27136167 10.6133156 -1.84272151 10.6068671 -4.3125 9.125 C-5.4375 7.25 -5.4375 7.25 -5.1875 4.125 C-4.19092466 0.30479452 -4.19092466 0.30479452 0 0 Z " fill="#484D4B" transform="translate(915.4375,712.75)"/>
</svg>
